HIERARCHY
ROOT Hips
{
	OFFSET 0.00000 0.00000 0.00000
	CHANNELS 6 Xposition Yposition Zposition Yrotation Zrotation Xrotation 
	JOINT Lumbar
	{
		OFFSET 0 0 0
		CHANNELS 3 Zrotation Xrotation Yrotation
		JOINT Neck
		{
			OFFSET 0.00 0.2701 0.00
			CHANNELS 3 Zrotation Xrotation Yrotation
			End Site
			{
				OFFSET 0.00 0.1379 0.00
			}
		}
		JOINT RightShoulder
		{
			OFFSET 0.0119 0.2289 0.1181
			CHANNELS 3 Zrotation Xrotation Yrotation
			JOINT RightElbow
			{
				OFFSET 0.00 -0.1475 0.00
				CHANNELS 2 Zrotation Yrotation
				JOINT RightWrist
				{
					OFFSET 0.00 -0.1605 0.00
					CHANNELS 2 Zrotation Xrotation
					End Site
					{
						OFFSET 0.0040 -0.1068 0.0006
					}
				}
			}
		}
		JOINT LeftShoulder
		{
			OFFSET 0.0119 0.2289 -0.1181
			CHANNELS 3 Zrotation Xrotation Yrotation
			JOINT LeftElbow
			{
				OFFSET 0.00 -0.1475 0.00
				CHANNELS 2 Zrotation Yrotation
				JOINT LeftWrist
				{
					OFFSET 0.00 -0.1605 0.00
					CHANNELS 2 Zrotation Xrotation
					End Site
					{
						OFFSET 0.0040 -0.1068 -0.0006
					}
				}
			}
		}
	}
	JOINT RightHip
	{
		OFFSET 0.0316 -0.0424 0.0458
		CHANNELS 3 Zrotation Xrotation Yrotation
		JOINT RightKnee
		{
			OFFSET 0.00 -0.2438 0.00
			CHANNELS 1 Zrotation
			JOINT RightAnkle
			{
				OFFSET 0.00 -0.2449 0.00
				CHANNELS 3 Zrotation Xrotation Yrotation
				End Site
				{
					OFFSET 0.1237 -0.0542 0.0051
				}
			}
		}
	}
	JOINT LeftHip
	{
		OFFSET 0.0316 -0.0424 -0.0458
		CHANNELS 3 Zrotation Xrotation Yrotation
		JOINT LeftKnee
		{
			OFFSET 0.00 -0.2438 0.00
			CHANNELS 1 Zrotation
			JOINT LeftAnkle
			{
				OFFSET 0.00 -0.2449 0.00
				CHANNELS 3 Zrotation Xrotation Yrotation
				End Site
				{
					OFFSET 0.1237 -0.0542 -0.0051
				}
			}
		}
	}
}
MOTION
Frames: 26
Frame Time: 0.02
0 0.57926 -0 184.27123 0 -4.05831 1.74021 3.35151 -3.49586 -22.93554 4.00675 0.71561 -17.73747 -70.23603 -72.93179 19.95938 80.15468 -16.8525 -2.58354 -8.06285 67.88692 61.89402 21.77284 -72.9083 -29.8564 1.82589 -3.29271 4.22084 4.05814 -6.26446 -2.09886 -2.72516 -6.39028 -1.16411 5.68035 -4.69045 -8.01095 5.46645 2.11355 1.58138
-5e-05 0.57927 1e-05 184.27485 0 -4.05672 1.72107 3.35563 -3.48909 -22.93807 4.00649 0.72254 -17.78512 -70.23082 -72.95373 19.96067 80.09035 -16.83416 -2.62566 -8.1141 67.89774 61.93178 21.77719 -72.91748 -29.87062 1.81642 -3.31097 4.21829 4.04888 -6.23937 -2.1094 -2.72842 -6.38703 -1.17672 5.67795 -4.69297 -7.99451 5.46132 2.12669 1.58214
-0.00011 0.57927 3e-05 184.27847 0 -4.05514 1.70209 3.35972 -3.48236 -22.94089 4.00628 0.72943 -17.83197 -70.22573 -72.97548 19.962 80.02672 -16.81593 -2.66723 -8.16467 67.90841 61.96927 21.7816 -72.92644 -29.88467 1.807 -3.32915 4.21577 4.03976 -6.21444 -2.11986 -2.73169 -6.38387 -1.18928 5.67558 -4.69537 -7.97815 5.45624 2.13971 1.58282
-0.00016 0.57927 4e-05 184.28209 0 -4.05359 1.6835 3.36378 -3.47576 -22.94479 4.00619 0.73625 -17.87595 -70.22111 -72.99655 19.96356 79.96558 -16.7979 -2.70693 -8.21335 67.91858 62.00634 21.78639 -72.93512 -29.89868 1.7977 -3.34723 4.21332 4.03121 -6.18982 -2.13017 -2.73503 -6.38115 -1.20185 5.6733 -4.69724 -7.9619 5.45124 2.15237 1.58315
-0.00021 0.57928 5e-05 184.28572 0 -4.05188 1.66277 3.36805 -3.46852 -22.94285 4.00541 0.74343 -17.93494 -70.21407 -73.02106 19.96398 79.89165 -16.77874 -2.75639 -8.2724 67.93143 62.04598 21.78929 -72.94587 -29.91348 1.78777 -3.36591 4.21048 4.01976 -6.16344 -2.14135 -2.73801 -6.37622 -1.21445 5.67057 -4.70183 -7.945 5.44573 2.1669 1.58529
-0.00027 0.57928 6e-05 184.2893 0 -4.05051 1.64661 3.37186 -3.46262 -22.95333 4.00609 0.74985 -17.96225 -70.21213 -73.03837 19.96676 79.84458 -16.76205 -2.78527 -8.30921 67.93859 62.07995 21.7961 -72.95181 -29.9262 1.77916 -3.38327 4.20847 4.01438 -6.14087 -2.15063 -2.74174 -6.37589 -1.22694 5.66878 -4.70075 -7.92956 5.44136 2.17748 1.58362
-0.00034 0.57928 7e-05 184.29292 0 -4.05006 1.64308 3.37439 -3.46055 -22.99915 4.01095 0.75404 -17.89848 -70.22474 -73.03462 19.97687 79.87547 -16.75149 -2.75513 -8.28566 67.92973 62.10042 21.81511 -72.94781 -29.93679 1.77442 -3.39747 4.20891 4.02683 -6.12819 -2.15517 -2.74786 -6.38934 -1.23959 5.66972 -4.68268 -7.91733 5.43952 2.17685 1.57075
-0.00043 0.57928 7e-05 184.29648 0 -4.04995 1.64416 3.37643 -3.45981 -23.05734 4.01727 0.75746 -17.80331 -70.2424 -73.0238 19.98922 79.93286 -16.74354 -2.70458 -8.23951 67.91516 62.11488 21.83786 -72.93837 -29.94468 1.77097 -3.41028 4.21018 4.04524 -6.11946 -2.15772 -2.7547 -6.40727 -1.25206 5.67158 -4.65911 -7.9067 5.43892 2.17228 1.55415
-0.00051 0.57928 7e-05 184.29996 0 -4.04968 1.64314 3.37869 -3.45833 -23.10928 4.02285 0.76131 -17.72477 -70.25745 -73.01697 20.00001 79.97566 -16.73486 -2.66474 -8.2029 67.90341 62.13065 21.85799 -72.92917 -29.9514 1.7668 -3.42345 4.211 4.06025 -6.10932 -2.16087 -2.76102 -6.42246 -1.26432 5.67293 -4.63892 -7.89586 5.43814 2.1697 1.53968
-0.00059 0.57928 8e-05 184.30384 0 -4.04943 1.64217 3.38101 -3.45736 -23.16397 4.02874 0.76483 -17.63634 -70.27385 -73.00691 20.01308 80.02903 -16.72428 -2.61882 -8.16909 67.89078 62.15213 21.88191 -72.92919 -29.96801 1.76323 -3.43775 4.2121 4.07816 -6.09755 -2.16528 -2.76814 -6.44059 -1.27778 5.67467 -4.61504 -7.88287 5.43579 2.16628 1.52333
-0.00067 0.57928 8e-05 184.30691 0 -4.04922 1.64218 3.38306 -3.45571 -23.21576 4.03435 0.76881 -17.56099 -70.28862 -73.00185 20.02193 80.0669 -16.71825 -2.58074 -8.12441 67.87853 62.16064 21.89893 -72.90899 -29.96368 1.7587 -3.44939 4.21283 4.09147 -6.09011 -2.16661 -2.77377 -6.4537 -1.28873 5.67582 -4.5975 -7.87469 5.43694 2.16366 1.51005
-0.00074 0.57928 8e-05 184.30739 0 -4.04912 1.64391 3.38469 -3.45124 -23.25738 4.03866 0.77471 -17.52978 -70.29779 -73.01255 20.01872 80.05344 -16.72435 -2.56906 -8.0524 67.86967 62.13185 21.89517 -72.83201 -29.89982 1.75124 -3.4539 4.21239 4.09036 -6.09377 -2.15962 -2.77503 -6.45141 -1.29255 5.67523 -4.59897 -7.88001 5.44815 2.16436 1.50593
-0.0008 0.57927 9e-05 184.30709 0 -4.04903 1.64644 3.38603 -3.44614 -23.29549 4.04266 0.78101 -17.51273 -70.30513 -73.02846 20.01117 80.02385 -16.73491 -2.56602 -7.97079 67.86124 62.09075 21.88448 -72.73541 -29.81552 1.74279 -3.45582 4.21156 4.08443 -6.10162 -2.14963 -2.77477 -6.44396 -1.2939 5.67401 -4.60695 -7.89003 5.46277 2.16597 1.50505
-0.00086 0.57927 0.0001 184.30739 0 -4.04888 1.64852 3.38736 -3.44173 -23.33467 4.04691 0.78683 -17.48897 -70.31323 -73.04188 20.00548 80.00293 -16.74331 -2.55918 -7.89539 67.85201 62.0573 21.87752 -72.64919 -29.74202 1.73473 -3.45901 4.21089 4.08091 -6.10752 -2.1412 -2.77524 -6.43921 -1.29654 5.67304 -4.61187 -7.89751 5.47534 2.16704 1.50289
-0.00092 0.57926 0.0001 184.30673 0 -4.04898 1.65113 3.38926 -3.43566 -23.37658 4.05074 0.79386 -17.46533 -70.32183 -73.05565 20.00029 79.97719 -16.75235 -2.55106 -7.81128 67.8451 62.01513 21.86833 -72.55621 -29.66169 1.72686 -3.46175 4.21034 4.07681 -6.11381 -2.1319 -2.77557 -6.43326 -1.29848 5.67226 -4.61712 -7.90672 5.48989 2.16851 1.49989
-0.00099 0.57926 0.00011 184.3078 0 -4.04856 1.65275 3.38995 -3.43287 -23.41172 4.05534 0.79847 -17.44516 -70.32887 -73.06991 19.99307 79.9574 -16.76112 -2.54793 -7.74349 67.83355 61.98808 21.86197 -72.47322 -29.5912 1.71851 -3.46482 4.20942 4.07254 -6.12017 -2.12369 -2.77583 -6.42838 -1.30128 5.67093 -4.6232 -7.91345 5.50131 2.16941 1.49934
-0.00105 0.57925 0.00012 184.31433 0 -4.04654 1.65173 3.38717 -3.43923 -23.4297 4.06226 0.79632 -17.4316 -70.33198 -73.08525 19.9806 79.957 -16.76774 -2.5567 -7.72157 67.80902 62.00752 21.8661 -72.41821 -29.5492 1.70754 -3.46945 4.20765 4.07052 -6.12605 -2.11949 -2.77627 -6.42915 -1.30716 5.66815 -4.63066 -7.9119 5.50133 2.16854 1.50586
-0.00111 0.57925 0.00013 184.32251 0 -4.04401 1.64961 3.38323 -3.4489 -23.44083 4.06992 0.7917 -17.42106 -70.33357 -73.10073 19.96636 79.96316 -16.77395 -2.57027 -7.71669 67.77984 62.04225 21.87312 -72.37468 -29.51842 1.69636 -3.47451 4.20551 4.06828 -6.13176 -2.11646 -2.77668 -6.43096 -1.31398 5.66485 -4.63862 -7.90774 5.49836 2.16709 1.51457
-0.00118 0.57924 0.00015 184.32961 0 -4.0418 1.64777 3.37997 -3.4571 -23.45455 4.07717 0.78816 -17.40903 -70.3359 -73.11552 19.95343 79.96687 -16.78054 -2.58154 -7.70529 67.75286 62.06897 21.87813 -72.32895 -29.48502 1.6863 -3.47939 4.20348 4.06501 -6.13727 -2.11273 -2.7771 -6.43129 -1.3203 5.66182 -4.64592 -7.90496 5.49808 2.1659 1.5215
-0.00125 0.57924 0.00016 184.33813 0 -4.03923 1.6469 3.37608 -3.46519 -23.4702 4.08474 0.78479 -17.39819 -70.33797 -73.13321 19.93829 79.96794 -16.78656 -2.59345 -7.68886 67.72554 62.10001 21.88579 -72.27019 -29.44077 1.672 -3.48411 4.20168 4.06601 -6.14408 -2.10957 -2.7775 -6.43548 -1.32681 5.65862 -4.65531 -7.90154 5.49256 2.16474 1.53172
-0.00131 0.57923 0.00017 184.34402 0 -4.03729 1.64375 3.37324 -3.47424 -23.48042 4.0918 0.78053 -17.38514 -70.34021 -73.14471 19.92729 79.97608 -16.79352 -2.60522 -7.68648 67.69782 62.1255 21.88877 -72.24103 -29.42164 1.66636 -3.48927 4.19932 4.05857 -6.1481 -2.10558 -2.77794 -6.43224 -1.33322 5.65567 -4.66032 -7.89874 5.49684 2.16338 1.53575
-0.00136 0.57923 0.0002 184.34306 0 -4.03715 1.63438 3.37346 -3.48572 -23.47584 4.09747 0.77394 -17.36744 -70.34365 -73.14012 19.929 80.00368 -16.80392 -2.61402 -7.7239 67.67009 62.13488 21.87742 -72.2956 -29.47271 1.68587 -3.49577 4.19536 4.02401 -6.14418 -2.09861 -2.77862 -6.40562 -1.33888 5.65358 -4.65359 -7.89864 5.53217 2.16149 1.52059
-0.0014 0.57923 0.00023 184.33928 0 -4.03767 1.62279 3.37481 -3.49795 -23.46631 4.10256 0.76662 -17.34694 -70.34724 -73.12912 19.93482 80.03798 -16.81512 -2.62268 -7.77393 67.64213 62.13766 21.86138 -72.37883 -29.54809 1.71393 -3.50266 4.19086 3.98167 -6.13749 -2.09084 -2.77934 -6.37199 -1.34446 5.65176 -4.64234 -7.89918 5.57687 2.15944 1.4994
-0.00145 0.57922 0.00027 184.33627 0 -4.03791 1.61233 3.37573 -3.50944 -23.46 4.10777 0.75994 -17.3262 -70.35054 -73.12034 19.9382 80.06822 -16.82543 -2.63235 -7.81487 67.6143 62.1416 21.84798 -72.4458 -29.61007 1.7373 -3.50921 4.18671 3.94552 -6.13223 -2.0837 -2.77995 -6.34333 -1.35027 5.64982 -4.63279 -7.89919 5.61506 2.15755 1.482
-0.0015 0.57922 0.0003 184.3354 0 -4.03804 1.60131 3.37625 -3.5227 -23.44933 4.11358 0.75191 -17.31195 -70.35476 -73.11438 19.94386 80.10279 -16.83794 -2.63842 -7.87065 67.5862 62.15383 21.83265 -72.52654 -29.68235 1.76396 -3.51643 4.18213 3.89834 -6.12625 -2.07549 -2.78088 -6.30727 -1.35533 5.64788 -4.62466 -7.90008 5.66252 2.15528 1.46028
-0.00155 0.57922 0.00033 184.32949 0 -4.03855 1.59097 3.37788 -3.53245 -23.44672 4.11803 0.7465 -17.28348 -70.35708 -73.10113 19.94584 80.13006 -16.84608 -2.65164 -7.8982 67.55866 62.14702 21.82004 -72.58561 -29.7388 1.78589 -3.52235 4.17831 3.87207 -6.12111 -2.06928 -2.78122 -6.28483 -1.36189 5.64598 -4.61261 -7.89935 5.69311 2.15376 1.44604
